<?xml version="1.0" encoding="UTF-8" standalone="no"?>
<!-- Created with Inkscape (http://www.inkscape.org/) -->

<svg
   width="64mm"
   height="64mm"
   viewBox="0 0 64 64"
   version="1.1"
   id="svg5"
   inkscape:version="1.2.2 (b0a8486541, 2022-12-01)"
   sodipodi:docname="config.svg"
   inkscape:export-filename="problem.png"
   inkscape:export-xdpi="25.4"
   inkscape:export-ydpi="25.4"
   xml:space="preserve"
   xmlns:inkscape="http://www.inkscape.org/namespaces/inkscape"
   xmlns:sodipodi="http://sodipodi.sourceforge.net/DTD/sodipodi-0.dtd"
   xmlns="http://www.w3.org/2000/svg"
   xmlns:svg="http://www.w3.org/2000/svg"><sodipodi:namedview
     id="namedview7"
     pagecolor="#ffffff"
     bordercolor="#666666"
     borderopacity="1.0"
     inkscape:showpageshadow="2"
     inkscape:pageopacity="0.0"
     inkscape:pagecheckerboard="0"
     inkscape:deskcolor="#d1d1d1"
     inkscape:document-units="mm"
     showgrid="true"
     inkscape:zoom="3.010669"
     inkscape:cx="112.93171"
     inkscape:cy="121.56767"
     inkscape:window-width="1920"
     inkscape:window-height="1011"
     inkscape:window-x="0"
     inkscape:window-y="0"
     inkscape:window-maximized="1"
     inkscape:current-layer="layer1"><inkscape:grid
       type="xygrid"
       id="grid344"
       units="mm"
       spacingx="0.99999997"
       spacingy="0.99999997" /></sodipodi:namedview><defs
     id="defs2" /><g
     inkscape:label="Capa 1"
     inkscape:groupmode="layer"
     id="layer1"><g
       id="g354"><rect
         style="fill:#1a1a1a;fill-rule:evenodd;stroke:none;stroke-width:0.990867;stroke-linejoin:round;stroke-opacity:0.547514"
         id="rect534"
         width="54"
         height="0.99999994"
         x="5"
         y="57" /><rect
         style="fill:#1a1a1a;fill-rule:evenodd;stroke:none;stroke-width:1;stroke-linejoin:round;stroke-opacity:0.547514"
         id="rect536"
         width="0.99999994"
         height="48.999996"
         x="9.999999"
         y="7.9999976" /><rect
         style="fill:#1a1a1a;fill-rule:evenodd;stroke:none;stroke-width:0.988304;stroke-linejoin:round;stroke-opacity:0.547514"
         id="rect538"
         width="42"
         height="0.99999994"
         x="11"
         y="7.9999976" /><rect
         style="fill:#1a1a1a;fill-rule:evenodd;stroke:none;stroke-width:1;stroke-linejoin:round;stroke-opacity:0.547514"
         id="rect540"
         width="0.99999994"
         height="48.999996"
         x="53"
         y="7.9999995" /></g><path
       style="fill:none;stroke-width:0.999997;stroke:#000000;stroke-opacity:1"
       d="m 31.02761,47.529021 c -0.06842,-0.01191 -0.160193,-0.04833 -0.203931,-0.0809 -0.145304,-0.108309 -0.17417,-0.199302 -0.224806,-0.708682 -0.07746,-0.779159 -0.105398,-0.817712 -0.659203,-0.909532 -0.553815,-0.09182 -0.640925,-0.04983 -0.840602,0.405541 -0.351002,0.800417 -0.408369,0.86678 -0.729259,0.843618 -0.243602,-0.01761 -0.506517,-0.107668 -0.613567,-0.210224 -0.146999,-0.140831 -0.15484,-0.214073 -0.08563,-0.799461 0.08653,-0.731837 0.06651,-0.775765 -0.451565,-0.991977 -0.339456,-0.141658 -0.521642,-0.160614 -0.648322,-0.06744 -0.04398,0.03237 -0.224232,0.247914 -0.400515,0.479012 -0.446546,0.585423 -0.521457,0.615429 -0.972572,0.3896 -0.222029,-0.111146 -0.276601,-0.152722 -0.337995,-0.257474 -0.04028,-0.06872 -0.07321,-0.164591 -0.07321,-0.213082 0,-0.04848 0.07922,-0.319567 0.176033,-0.602391 0.241684,-0.705995 0.236166,-0.726661 -0.285968,-1.070794 -0.463121,-0.30523 -0.474705,-0.302749 -1.099894,0.235203 -0.191788,0.165027 -0.379071,0.311597 -0.416191,0.325712 -0.184931,0.07029 -0.360636,0.0083 -0.626501,-0.221281 -0.185458,-0.160114 -0.252926,-0.278953 -0.252926,-0.445526 0,-0.112031 0.123159,-0.343441 0.491152,-0.922841 0.09736,-0.153293 0.116714,-0.294516 0.06088,-0.443959 -0.03572,-0.0956 -0.471697,-0.547555 -0.586979,-0.608514 -0.161191,-0.08523 -0.264724,-0.05596 -0.780755,0.220603 -0.531715,0.284984 -0.599589,0.302286 -0.799248,0.203722 -0.110455,-0.05454 -0.329689,-0.308524 -0.423256,-0.490396 -0.0452,-0.08781 -0.04513,-0.301124 1.07e-4,-0.385651 0.01939,-0.03614 0.203138,-0.239174 0.408393,-0.451094 0.500212,-0.516474 0.50851,-0.560773 0.199409,-1.063765 -0.294566,-0.479354 -0.326874,-0.488307 -1.034986,-0.286838 -0.369647,0.105172 -0.55288,0.144025 -0.631191,0.133845 -0.175499,-0.02281 -0.286646,-0.130623 -0.41359,-0.401135 -0.133267,-0.283987 -0.15049,-0.471241 -0.05539,-0.601828 0.03208,-0.04398 0.254173,-0.212405 0.493583,-0.374231 0.46404,-0.313656 0.566404,-0.420525 0.566404,-0.591298 0,-0.131442 -0.188759,-0.704212 -0.263313,-0.798991 -0.03058,-0.03885 -0.101836,-0.0926 -0.158389,-0.11943 -0.09312,-0.0442 -0.154626,-0.04563 -0.652001,-0.01483 -0.50742,0.03137 -0.55745,0.03001 -0.658025,-0.01775 -0.148387,-0.07043 -0.234504,-0.216576 -0.293988,-0.498986 -0.101194,-0.480437 -0.03144,-0.569406 0.648244,-0.826687 0.529134,-0.2003 0.65913,-0.288962 0.693462,-0.472987 0.0096,-0.05161 -0.0014,-0.249497 -0.02495,-0.439746 -0.06651,-0.541674 -0.09754,-0.567223 -0.832867,-0.685549 -0.55976,-0.09007 -0.621461,-0.112992 -0.743301,-0.276187 -0.0524,-0.07022 -0.0601,-0.122581 -0.0601,-0.411208 0,-0.288627 0.0076,-0.341003 0.0601,-0.411208 0.12184,-0.163188 0.183541,-0.186114 0.743301,-0.276188 0.735323,-0.118325 0.766362,-0.143868 0.832867,-0.685549 0.02338,-0.190248 0.03458,-0.388132 0.02495,-0.439745 -0.03436,-0.184018 -0.164328,-0.272687 -0.693462,-0.47298 -0.679675,-0.257289 -0.749438,-0.346257 -0.648244,-0.826694 0.05945,-0.282404 0.145601,-0.428567 0.293988,-0.498986 0.100575,-0.04776 0.150605,-0.04905 0.658025,-0.01775 0.759141,0.04691 0.786979,0.03208 0.969835,-0.516666 0.12139,-0.364307 0.128869,-0.484857 0.03835,-0.61759 -0.03707,-0.05432 -0.254708,-0.223953 -0.500847,-0.39032 -0.239409,-0.161833 -0.461524,-0.330239 -0.493575,-0.374238 -0.09513,-0.13058 -0.07791,-0.317834 0.05532,-0.601828 0.126937,-0.270505 0.238083,-0.378308 0.413582,-0.401128 0.07831,-0.01019 0.261545,0.02866 0.631192,0.133838 0.708119,0.201469 0.74042,0.192516 1.034992,-0.286831 0.309102,-0.502999 0.300796,-0.547298 -0.199416,-1.063765 -0.205255,-0.211927 -0.38903,-0.414922 -0.408392,-0.451094 -0.04527,-0.08453 -0.04527,-0.297838 -1.07e-4,-0.385658 0.09357,-0.181865 0.312801,-0.435867 0.423256,-0.490396 0.199651,-0.09856 0.267526,-0.08126 0.79924,0.203729 0.516032,0.276579 0.619565,0.305829 0.780756,0.220596 0.115281,-0.06095 0.551241,-0.512916 0.586978,-0.608507 0.05589,-0.14945 0.0365,-0.290673 -0.06088,-0.443966 -0.367993,-0.5794 -0.491151,-0.810803 -0.491151,-0.922834 0,-0.166851 0.071,-0.292676 0.252968,-0.448114 0.265366,-0.226706 0.444023,-0.288941 0.626415,-0.218201 0.03707,0.0144 0.231318,0.166573 0.431604,0.338194 0.448528,0.384318 0.507441,0.421995 0.659999,0.422137 0.100831,8.6e-5 0.1717,-0.03329 0.424525,-0.199915 0.522134,-0.344126 0.527652,-0.364792 0.285968,-1.070794 -0.09682,-0.282824 -0.176033,-0.5539 -0.176033,-0.602391 0,-0.04848 0.03293,-0.144374 0.07321,-0.213082 0.06138,-0.104752 0.115966,-0.146328 0.337995,-0.257474 0.451116,-0.225829 0.526026,-0.195816 0.972572,0.3896 0.176283,0.231105 0.356509,0.446661 0.400515,0.479019 0.126681,0.09315 0.308866,0.0742 0.648322,-0.06744 0.518099,-0.216211 0.538094,-0.260133 0.451565,-0.991969 -0.06922,-0.585396 -0.06138,-0.658638 0.08563,-0.799462 0.10705,-0.102563 0.369965,-0.192644 0.613567,-0.210231 0.320891,-0.02317 0.378258,0.0432 0.72926,0.843618 0.199676,0.455336 0.286786,0.497361 0.840601,0.405541 0.553805,-0.09182 0.581748,-0.130373 0.659204,-0.909532 0.03284,-0.330274 0.06353,-0.508011 0.09811,-0.567994 0.08372,-0.145236 0.212943,-0.211414 0.457571,-0.23434 0.371221,-0.03479 0.523807,0.0098 0.657817,0.192337 0.02921,0.03978 0.09746,0.282489 0.155147,0.551733 0.123705,0.577375 0.14071,0.622893 0.269331,0.721001 0.09093,0.06936 0.134904,0.07872 0.469144,0.0999 0.60686,0.0385 0.630681,0.01889 0.876096,-0.719604 0.190236,-0.572449 0.249646,-0.662095 0.46564,-0.702615 0.13736,-0.02581 0.608222,0.06059 0.698726,0.128177 0.185584,0.138564 0.191595,0.162289 0.207433,0.818923 0.01915,0.793852 0.0085,0.776657 0.576289,0.932979 0.389534,0.107247 0.390266,0.10729 0.549237,0.03037 0.111878,-0.05418 0.153305,-0.108937 0.415561,-0.549494 0.318201,-0.534538 0.370969,-0.584804 0.613906,-0.584804 0.168335,0 0.5465,0.161319 0.66247,0.282603 0.142769,0.149315 0.143751,0.224367 0.01056,0.807738 -0.06526,0.285826 -0.118649,0.540027 -0.118649,0.5649 0,0.02488 0.02658,0.100111 0.05906,0.167215 0.05205,0.107518 0.0981,0.143198 0.387936,0.300525 0.360286,0.195581 0.528154,0.227604 0.684698,0.130623 0.04253,-0.02638 0.228092,-0.211122 0.412358,-0.410617 0.184267,-0.199487 0.373228,-0.382578 0.419912,-0.406866 0.156966,-0.08166 0.352184,-0.03985 0.602593,0.129154 0.250072,0.168747 0.320099,0.257766 0.339722,0.431853 0.01199,0.106377 -0.01637,0.185964 -0.22268,0.624854 -0.240195,0.510977 -0.261473,0.589495 -0.204239,0.75368 0.04479,0.128491 0.575552,0.577568 0.713125,0.603374 0.172471,0.03236 0.255562,-0.0043 0.723591,-0.321726 0.249195,-0.168855 0.48276,-0.308987 0.519033,-0.311404 0.23817,-0.01583 0.359856,0.04598 0.569717,0.289725 0.184616,0.214387 0.209995,0.265822 0.209995,0.42558 0,0.121676 -0.02124,0.159965 -0.269482,0.485826 -0.148214,0.194555 -0.30881,0.406054 -0.356879,0.470008 -0.07244,0.09637 -0.08714,0.142891 -0.08589,0.271845 0.0014,0.14816 0.01196,0.169126 0.220681,0.439817 0.383939,0.497924 0.388749,0.498872 1.092256,0.214679 0.434333,-0.175456 0.54036,-0.207921 0.641769,-0.196486 0.174005,0.0196 0.277852,0.107218 0.429843,0.36261 0.259377,0.435846 0.229237,0.536 -0.291839,0.969828 -0.495245,0.41232 -0.5356,0.460654 -0.5356,0.64155 0,0.113684 0.03286,0.213938 0.155022,0.472923 0.230247,0.488129 0.27762,0.506749 0.981169,0.38563 0.543142,-0.0935 0.641202,-0.09517 0.773842,-0.01319 0.116679,0.07211 0.18364,0.18975 0.272983,0.479574 0.07525,0.244108 0.06047,0.388639 -0.0527,0.515305 -0.04272,0.04783 -0.29371,0.200521 -0.557749,0.339342 -0.463944,0.243929 -0.482413,0.257131 -0.549782,0.393015 l -0.06971,0.140596 0.07739,0.3496 c 0.136978,0.618752 0.142074,0.62248 0.908465,0.66432 0.303573,0.01661 0.561745,0.03023 0.573717,0.0303 0.06043,4.41e-4 0.257273,0.221195 0.282168,0.316472 0.05121,0.196002 0.06866,0.516687 0.03384,0.622188 -0.06475,0.196179 -0.149039,0.242503 -0.730688,0.401506 -0.737117,0.201512 -0.757844,0.223426 -0.757844,0.801265 0,0.577839 0.02072,0.599753 0.757844,0.801265 0.581649,0.15901 0.665942,0.205326 0.730688,0.401506 0.03482,0.1055 0.01737,0.426186 -0.03384,0.622195 -0.02489,0.09528 -0.22174,0.316051 -0.282168,0.316465 -0.01197,8.5e-5 -0.270144,0.01369 -0.573717,0.0303 -0.766391,0.04185 -0.771487,0.04555 -0.908465,0.664326 l -0.07739,0.349593 0.06971,0.140603 c 0.06737,0.135877 0.08584,0.14908 0.549782,0.393009 0.264039,0.138828 0.515026,0.291528 0.557749,0.339349 0.113173,0.126659 0.127955,0.27119 0.0527,0.515297 -0.08934,0.289825 -0.156304,0.407466 -0.272983,0.479574 -0.13264,0.08198 -0.2307,0.08031 -0.773842,-0.01319 -0.703549,-0.12112 -0.750922,-0.102499 -0.981169,0.385637 -0.122157,0.258978 -0.155022,0.359231 -0.155022,0.472916 0,0.180895 0.04036,0.229236 0.5356,0.641556 0.521076,0.433822 0.551216,0.533982 0.291839,0.969821 -0.151991,0.255399 -0.255838,0.343006 -0.429843,0.362618 -0.101409,0.01141 -0.207436,-0.02103 -0.641769,-0.196494 -0.703507,-0.284193 -0.708317,-0.283244 -1.092256,0.21468 -0.208723,0.27069 -0.219245,0.291664 -0.220681,0.439823 -0.0012,0.128947 0.01345,0.175471 0.08589,0.271846 0.04807,0.06395 0.208665,0.275453 0.356879,0.470007 0.248245,0.325862 0.269482,0.364144 0.269482,0.485819 0,0.159766 -0.02538,0.211194 -0.209995,0.425588 -0.209861,0.243701 -0.331547,0.305586 -0.569717,0.289718 -0.03627,-0.0021 -0.269838,-0.14255 -0.519033,-0.311404 -0.468029,-0.317136 -0.55112,-0.354085 -0.723591,-0.321727 -0.137573,0.02581 -0.668332,0.474891 -0.713125,0.603382 -0.05723,0.164178 -0.03596,0.242695 0.204239,0.75368 0.206309,0.438889 0.23467,0.518469 0.22268,0.624846 -0.01963,0.174088 -0.08965,0.263106 -0.339722,0.431854 -0.250409,0.168976 -0.445627,0.210815 -0.602593,0.129161 -0.04669,-0.02431 -0.235645,-0.207379 -0.419912,-0.406874 -0.184266,-0.199488 -0.369827,-0.384268 -0.412358,-0.410617 -0.148527,-0.09201 -0.323862,-0.06338 -0.643264,0.105045 -0.530367,0.279673 -0.540508,0.308031 -0.373091,1.043255 0.136547,0.599653 0.1359,0.672988 -0.0073,0.822701 -0.115971,0.121284 -0.494135,0.282611 -0.66247,0.282611 -0.242938,0 -0.295706,-0.05026 -0.613906,-0.584804 -0.262256,-0.440558 -0.303684,-0.495336 -0.415561,-0.549502 -0.158972,-0.07696 -0.159702,-0.07691 -0.549237,0.03037 -0.567763,0.156329 -0.557143,0.139127 -0.576289,0.932985 -0.01584,0.656627 -0.02185,0.680359 -0.207433,0.818916 -0.0905,0.06758 -0.561366,0.153949 -0.698726,0.128178 -0.214816,-0.04028 -0.274396,-0.130302 -0.465027,-0.702509 -0.246046,-0.738538 -0.269957,-0.758164 -0.87671,-0.719711 -0.334239,0.02117 -0.378218,0.03058 -0.469144,0.0999 -0.128621,0.09811 -0.145624,0.143626 -0.269331,0.721001 -0.05769,0.269244 -0.125933,0.511947 -0.155147,0.551733 -0.11105,0.151247 -0.198654,0.190591 -0.436536,0.196059 -0.123098,0.0029 -0.279797,-0.0043 -0.348222,-0.01647 z m -1.040914,-4.408702 c 0.280598,-0.146163 0.495161,-0.440166 0.564961,-0.774125 0.02134,-0.102086 0.03227,-0.696963 0.03227,-1.756201 0,-1.747803 0.0024,-1.720642 -0.169061,-1.901166 -0.09554,-0.100582 -0.174315,-0.142984 -0.449238,-0.241812 -0.509667,-0.183212 -1.17409,-0.568236 -1.651865,-0.957231 -0.336906,-0.274298 -0.517215,-0.33026 -0.750319,-0.232865 -0.05789,0.02424 -0.716068,0.394555 -1.462547,0.823015 -1.480491,0.849742 -1.598268,0.934177 -1.742464,1.249145 -0.09237,0.201769 -0.120948,0.503392 -0.06623,0.698866 0.0611,0.218094 0.234412,0.441898 0.591163,0.763225 1.191878,1.073518 2.527318,1.836921 4.036051,2.307199 0.336751,0.104966 0.391632,0.114013 0.644841,0.106278 0.23123,-0.0071 0.300729,-0.02096 0.42243,-0.08433 z m 5.275459,-0.06167 c 1.534558,-0.504119 2.835495,-1.271507 4.038918,-2.382444 0.233899,-0.215927 0.301643,-0.298836 0.389653,-0.476915 0.102998,-0.208399 0.106119,-0.224061 0.09411,-0.472068 -0.01076,-0.222186 -0.02556,-0.28112 -0.110637,-0.440415 -0.05402,-0.101152 -0.159595,-0.239089 -0.234613,-0.306535 -0.192965,-0.173496 -2.906355,-1.731913 -3.057559,-1.756087 -0.188829,-0.03023 -0.347252,0.03329 -0.600453,0.240686 -0.510772,0.418337 -1.003858,0.707663 -1.629944,0.956382 -0.445918,0.177153 -0.594201,0.292014 -0.653753,0.506415 -0.03806,0.137031 -0.03955,3.132446 -0.0016,3.363728 0.06819,0.416348 0.328832,0.747143 0.696788,0.884331 0.07055,0.02631 0.196883,0.03572 0.38216,0.02852 0.232862,-0.0091 0.341838,-0.03215 0.686998,-0.145572 z m -2.501202,-6.266645 c 1.323672,-0.260825 2.419328,-1.18512 2.890795,-2.43867 0.387194,-1.029482 0.295445,-2.291637 -0.233357,-3.210165 -0.593485,-1.030879 -1.520597,-1.70138 -2.67331,-1.933368 -0.344744,-0.06936 -1.087356,-0.06887 -1.439852,0.0014 -0.293276,0.05817 -0.774053,0.219605 -1.012773,0.340112 -0.333365,0.168284 -0.715907,0.450118 -1.005771,0.74099 -0.730057,0.7326 -1.120807,1.677819 -1.120807,2.711215 0,1.033389 0.39075,1.978607 1.120807,2.711207 0.289864,0.290873 0.672406,0.572706 1.005771,0.740991 0.347438,0.175384 0.889098,0.33284 1.340259,0.389593 0.203358,0.02559 0.894221,-0.0071 1.128238,-0.05297 z m -9.5914,-0.389679 c 0.08012,-0.02816 0.779229,-0.416284 1.553583,-0.862495 1.206307,-0.695109 1.418591,-0.827414 1.482437,-0.923882 0.112523,-0.170038 0.12338,-0.294644 0.05831,-0.669681 -0.04484,-0.258578 -0.05746,-0.465608 -0.05746,-0.943101 0,-0.477493 0.01262,-0.684523 0.05746,-0.943094 0.06509,-0.375108 0.05418,-0.499642 -0.05846,-0.66983 -0.06409,-0.0968 -0.276815,-0.229073 -1.505179,-0.935795 -0.786822,-0.452684 -1.497536,-0.842684 -1.579368,-0.866679 -0.226834,-0.06651 -0.609598,-0.03914 -0.796232,0.05689 -0.189023,0.09727 -0.378102,0.290474 -0.463856,0.473964 -0.117177,0.250723 -0.28765,1.079106 -0.371785,1.806616 -0.04812,0.415942 -0.04812,1.739904 0,2.155846 0.08413,0.72751 0.254608,1.555893 0.371785,1.806616 0.112801,0.241362 0.367872,0.462272 0.624084,0.54049 0.139028,0.04242 0.532621,0.02759 0.68463,-0.02588 z m 18.557775,-0.03565 c 0.191467,-0.09209 0.380839,-0.284834 0.468949,-0.477293 0.03905,-0.0853 0.11022,-0.325939 0.158152,-0.534751 0.35102,-1.52921 0.35102,-3.173687 0,-4.702897 -0.04793,-0.208812 -0.119101,-0.449454 -0.158152,-0.534752 -0.08821,-0.192672 -0.27771,-0.385408 -0.468949,-0.476958 -0.199021,-0.09526 -0.589184,-0.117505 -0.807689,-0.04605 -0.130514,0.0427 -2.74419,1.521076 -2.969828,1.679843 -0.103992,0.07316 -0.19915,0.27762 -0.19915,0.427876 0,0.06723 0.02226,0.249895 0.04947,0.405947 0.06895,0.395396 0.06895,1.395664 0,1.791061 -0.02721,0.156051 -0.04947,0.338728 -0.04947,0.405947 0,0.150262 0.09516,0.354719 0.19915,0.427868 0.188193,0.132398 2.801611,1.619961 2.932657,1.669278 0.212552,0.07999 0.642691,0.06209 0.84486,-0.03514 z M 27.964163,28.753658 c 0.0573,-0.02046 0.214618,-0.127187 0.349597,-0.237114 0.480212,-0.391098 1.140661,-0.773848 1.651865,-0.957302 0.27475,-0.0986 0.353642,-0.141038 0.449238,-0.241684 0.171476,-0.180525 0.169061,-0.153356 0.169061,-1.901159 0,-1.644919 -0.0075,-1.772775 -0.119404,-2.033821 -0.07259,-0.169339 -0.299313,-0.405277 -0.477248,-0.496634 -0.113419,-0.05824 -0.201822,-0.07789 -0.393873,-0.08759 -0.214746,-0.01084 -0.290188,-1.78e-4 -0.568095,0.08044 -1.493858,0.433222 -2.925516,1.240811 -4.141932,2.336435 -0.356751,0.321327 -0.530104,0.545131 -0.591163,0.763218 -0.05475,0.195481 -0.02616,0.497104 0.06623,0.698866 0.144188,0.314954 0.262022,0.399431 1.741871,1.248809 0.746159,0.428268 1.401453,0.798115 1.456203,0.821868 0.122054,0.05297 0.269636,0.05504 0.407659,0.0057 z m 9.931897,-0.794564 c 0.785004,-0.452086 1.467438,-0.864592 1.543529,-0.933 0.07502,-0.06744 0.180594,-0.205391 0.234613,-0.306535 0.08478,-0.158746 0.0999,-0.218572 0.110485,-0.437236 0.01131,-0.233564 0.0055,-0.267775 -0.07433,-0.438376 -0.109791,-0.234619 -0.197476,-0.333347 -0.644958,-0.726184 -1.133982,-0.995513 -2.341495,-1.685083 -3.803246,-2.171915 -0.386956,-0.128868 -0.42842,-0.136696 -0.730698,-0.137929 -0.301111,-0.0014 -0.329769,0.0036 -0.474532,0.08405 -0.295376,0.163644 -0.502525,0.467691 -0.560716,0.822994 -0.03788,0.23129 -0.03639,3.226704 0.0016,3.363736 0.05955,0.214394 0.207835,0.329254 0.653753,0.506407 0.624739,0.248192 1.081887,0.515033 1.603801,0.936151 0.288674,0.232929 0.384133,0.275303 0.58505,0.259727 0.132077,-0.01027 0.303571,-0.100853 1.555577,-0.821889 z"
       id="path348" /></g></svg>
