<?xml version="1.0" encoding="UTF-8" standalone="no"?>
<!-- Created with Inkscape (http://www.inkscape.org/) -->

<svg
   width="64mm"
   height="64mm"
   viewBox="0 0 64 64"
   version="1.1"
   id="svg5"
   inkscape:version="1.2.2 (b0a8486541, 2022-12-01)"
   sodipodi:docname="problem.svg"
   inkscape:export-filename="problem.png"
   inkscape:export-xdpi="25.4"
   inkscape:export-ydpi="25.4"
   xml:space="preserve"
   xmlns:inkscape="http://www.inkscape.org/namespaces/inkscape"
   xmlns:sodipodi="http://sodipodi.sourceforge.net/DTD/sodipodi-0.dtd"
   xmlns="http://www.w3.org/2000/svg"
   xmlns:svg="http://www.w3.org/2000/svg"><sodipodi:namedview
     id="namedview7"
     pagecolor="#ffffff"
     bordercolor="#666666"
     borderopacity="1.0"
     inkscape:showpageshadow="2"
     inkscape:pageopacity="0.0"
     inkscape:pagecheckerboard="0"
     inkscape:deskcolor="#d1d1d1"
     inkscape:document-units="mm"
     showgrid="true"
     inkscape:zoom="4.2577289"
     inkscape:cx="195.29191"
     inkscape:cy="134.81366"
     inkscape:window-width="3440"
     inkscape:window-height="1371"
     inkscape:window-x="0"
     inkscape:window-y="0"
     inkscape:window-maximized="1"
     inkscape:current-layer="layer1"><inkscape:grid
       type="xygrid"
       id="grid344"
       units="mm"
       spacingx="0.99999997"
       spacingy="0.99999997" /></sodipodi:namedview><defs
     id="defs2" /><g
     inkscape:label="Capa 1"
     inkscape:groupmode="layer"
     id="layer1"><rect
       style="fill:#1a1a1a;fill-rule:evenodd;stroke:none;stroke-width:0.990867;stroke-linejoin:round;stroke-opacity:0.547514"
       id="rect534"
       width="54"
       height="0.99999994"
       x="5"
       y="57" /><rect
       style="fill:#1a1a1a;fill-rule:evenodd;stroke:none;stroke-width:1;stroke-linejoin:round;stroke-opacity:0.547514"
       id="rect536"
       width="0.99999994"
       height="48.999996"
       x="9.999999"
       y="7.9999976" /><rect
       style="fill:#1a1a1a;fill-rule:evenodd;stroke:none;stroke-width:0.988304;stroke-linejoin:round;stroke-opacity:0.547514"
       id="rect538"
       width="42"
       height="0.99999994"
       x="11"
       y="7.9999976" /><rect
       style="fill:#1a1a1a;fill-rule:evenodd;stroke:none;stroke-width:1;stroke-linejoin:round;stroke-opacity:0.547514"
       id="rect540"
       width="0.99999994"
       height="48.999996"
       x="53"
       y="7.9999995" /><circle
       style="fill:none;fill-rule:evenodd;stroke:#000000;stroke-width:1;stroke-linejoin:round;stroke-dasharray:none;stroke-opacity:1"
       id="path1354"
       cx="31.999998"
       cy="22.406248"
       r="2.406249" /><path
       style="fill:none;fill-rule:evenodd;stroke:#000000;stroke-width:1;stroke-linecap:butt;stroke-linejoin:miter;stroke-dasharray:none;stroke-opacity:1"
       d="m 30.121098,26.479121 3.598039,0.0041 5.186421,2.034783 3.285752,-3.966158 c -0.03091,-0.03626 1.192608,-0.828664 1.678399,-0.536073 0.485791,0.292591 0.777394,0.966611 0.209768,1.663366 -1.192955,1.46434 -4.733706,5.905543 -5.171735,5.726156 -0.977037,-0.400129 -3.991038,-1.819955 -3.991038,-1.819955 l 0.144188,6.3409 1.528667,5.372967 c 0,0 2.457036,3.536021 3.57061,5.158628 0.391363,0.570262 0.325677,1.732401 -0.170283,2.067916 -0.49596,0.335515 -1.488614,0.472617 -2.190138,-0.283038 -0.701524,-0.755653 -4.138261,-5.332794 -4.138261,-5.332794 L 32.719041,39.52076 c 0,0 -2.682173,0.434629 -4.212783,-0.626396 -1.530609,-1.061024 -2.509828,-1.747133 -2.509828,-1.747133 0,0 -0.55758,2.840447 -0.784663,4.623017 -0.07999,0.627938 -1.073404,0.953125 -1.685356,0.775559 -0.611952,-0.177566 -1.219413,-0.933584 -1.064908,-1.559253 0.154505,-0.625665 0.899965,-5.955061 0.899965,-5.955061 0,0 0.46655,-1.71218 1.103383,-1.92215 0.636833,-0.209971 0.934555,-0.303427 1.947153,0.435599 1.012598,0.739029 2.059784,1.443223 2.059784,1.443223 l 0.100131,-5.665472 c 0,0 -3.931678,-5.324472 -5.996813,-8.318761 -0.379842,-0.550741 -0.214949,-1.726987 0.18424,-1.991333 0.399189,-0.264345 0.797165,-0.543255 1.509733,0.271874 1.290554,0.968287 3.819324,5.544183 5.852019,7.194648 z"
       id="path2198"
       sodipodi:nodetypes="cccczsscccszsccscszscssccsscc" /><path
       style="fill:none;fill-rule:evenodd;stroke:#000000;stroke-width:1;stroke-linecap:butt;stroke-linejoin:round;stroke-dasharray:none;stroke-opacity:1"
       d="m 37.538879,52.301205 -0.598966,-1.727473 5.46169,-1.911834 0.647634,4.21776 z"
       id="path2211" /><path
       style="fill:none;fill-rule:evenodd;stroke:#000000;stroke-width:1;stroke-linecap:butt;stroke-linejoin:miter;stroke-dasharray:none;stroke-opacity:1"
       d="m 41.679895,25.037734 c -0.08174,-0.115418 -0.145974,-0.244699 -0.189361,-0.388734 0,0 -0.716278,-3.046467 1.368265,-2.560735 2.084546,0.485731 4.005788,1.656017 3.538025,2.749512 -0.225821,0.527905 -1.249089,0.927045 -2.309003,0.99356"
       id="path2219" /><path
       style="fill:none;fill-rule:evenodd;stroke:#000000;stroke-width:1;stroke-linecap:butt;stroke-linejoin:round;stroke-dasharray:none;stroke-opacity:1"
       d="m 19.232235,12.501544 -3.207862,3.128734 5.082733,1.74219 z"
       id="path2215" /></g></svg>
