<?xml version="1.0" encoding="UTF-8" standalone="no"?>
<!-- Created with Inkscape (http://www.inkscape.org/) -->

<svg
   width="69.017883mm"
   height="30.420433mm"
   viewBox="0 0 69.017883 30.420433"
   version="1.1"
   id="svg5"
   xml:space="preserve"
   inkscape:version="1.2.2 (b0a8486541, 2022-12-01)"
   sodipodi:docname="sends.svg"
   xmlns:inkscape="http://www.inkscape.org/namespaces/inkscape"
   xmlns:sodipodi="http://sodipodi.sourceforge.net/DTD/sodipodi-0.dtd"
   xmlns="http://www.w3.org/2000/svg"
   xmlns:svg="http://www.w3.org/2000/svg"><sodipodi:namedview
     id="namedview7"
     pagecolor="#ffffff"
     bordercolor="#666666"
     borderopacity="1.0"
     inkscape:showpageshadow="2"
     inkscape:pageopacity="0.0"
     inkscape:pagecheckerboard="0"
     inkscape:deskcolor="#d1d1d1"
     inkscape:document-units="mm"
     showgrid="false"
     inkscape:zoom="0.66331438"
     inkscape:cx="138.69743"
     inkscape:cy="316.59196"
     inkscape:window-width="1920"
     inkscape:window-height="1011"
     inkscape:window-x="0"
     inkscape:window-y="0"
     inkscape:window-maximized="1"
     inkscape:current-layer="layer1" /><defs
     id="defs2" /><g
     inkscape:label="Capa 1"
     inkscape:groupmode="layer"
     id="layer1"
     transform="translate(-42.860033,-53.965921)"><g
       id="g1658"
       inkscape:export-filename="sends.png"
       inkscape:export-xdpi="40.080002"
       inkscape:export-ydpi="40.080002"
       style="stroke:#333333;stroke-width:2;stroke-dasharray:none"><path
         style="fill:none;fill-rule:evenodd;stroke:#333333;stroke-width:2;stroke-linecap:round;stroke-linejoin:round;stroke-dasharray:none;stroke-opacity:1"
         d="m 108.63093,62.668879 c 0,0 -15.927325,-1.288342 -22.803207,0.355643 -4.259533,1.01843 -4.473385,3.493127 -4.713533,7.788497 -0.207464,3.71077 -0.50349,6.999725 0.450148,7.824553 0.4807,0.41577 1.824136,0.86902 3.637017,0.708919 0,0 0.260014,2.622919 1.234039,3.227277 0.974024,0.604359 2.208257,1.405042 6.191611,0.14218 3.983354,-1.262863 6.609968,-3.164948 7.923275,-4.419825 1.31331,-1.254877 2.04154,-2.814953 4.80468,-2.963949 2.76315,-0.148996 3.08159,-0.151723 4.257,-2.886042 1.17542,-2.73432 1.63389,-7.282885 0.9378,-8.516143 -0.69609,-1.233258 -1.22351,-1.257994 -1.91883,-1.26111 z"
         id="path462"
         sodipodi:nodetypes="cssscssssssc" /><path
         style="fill:none;fill-rule:evenodd;stroke:#333333;stroke-width:2;stroke-linecap:round;stroke-linejoin:round;stroke-dasharray:none;stroke-opacity:1"
         d="m 85.223349,79.380013 c 0,0 4.920543,-0.05977 6.653615,-3.20489 1.733073,-3.145121 2.467673,-5.553504 2.467673,-5.553504 v 0.01101"
         id="path611" /><path
         style="fill:none;fill-rule:evenodd;stroke:#333333;stroke-width:2;stroke-linecap:round;stroke-linejoin:round;stroke-dasharray:none;stroke-opacity:1"
         d="m 85.316035,67.151755 c 0,0 1.162291,1.777417 3.527777,2.846887 2.365483,1.069467 4.033208,3.023582 4.04767,3.897622"
         id="path613" /><path
         style="fill:none;fill-rule:evenodd;stroke:#333333;stroke-width:2;stroke-linecap:round;stroke-linejoin:round;stroke-dasharray:none;stroke-opacity:1"
         d="m 83.462663,75.616461 c 0,0 4.043884,-2.836971 4.455255,-4.487548 0.411369,-1.650579 0.304969,-1.369465 0.304969,-1.369465"
         id="path615"
         sodipodi:nodetypes="csc" /><path
         style="fill:none;fill-rule:evenodd;stroke:#333333;stroke-width:2;stroke-linecap:round;stroke-linejoin:round;stroke-dasharray:none;stroke-opacity:1"
         d="m 89.456598,75.932185 c 0,0 -2.246977,-1.672476 -2.297452,-3.462358"
         id="path617" /></g><g
       id="g1670"
       transform="matrix(-1,0,0,1,154.73795,0)"
       style="stroke:#333333;stroke-width:2;stroke-dasharray:none"><path
         style="fill:none;fill-rule:evenodd;stroke:#333333;stroke-width:2;stroke-linecap:round;stroke-linejoin:round;stroke-dasharray:none;stroke-opacity:1"
         d="m 108.63093,62.668879 c 0,0 -15.927325,-1.288342 -22.803207,0.355643 -4.259533,1.01843 -4.473385,3.493127 -4.713533,7.788497 -0.207464,3.71077 -0.50349,6.999725 0.450148,7.824553 0.4807,0.41577 1.824136,0.86902 3.637017,0.708919 0,0 0.260014,2.622919 1.234039,3.227277 0.974024,0.604359 2.208257,1.405042 6.191611,0.14218 3.983354,-1.262863 6.609968,-3.164948 7.923275,-4.419825 1.31331,-1.254877 2.04154,-2.814953 4.80468,-2.963949 2.76315,-0.148996 3.08159,-0.151723 4.257,-2.886042 1.17542,-2.73432 1.63389,-7.282885 0.9378,-8.516143 -0.69609,-1.233258 -1.22351,-1.257994 -1.91883,-1.26111 z"
         id="path1660"
         sodipodi:nodetypes="cssscssssssc" /><path
         style="fill:none;fill-rule:evenodd;stroke:#333333;stroke-width:2;stroke-linecap:round;stroke-linejoin:round;stroke-dasharray:none;stroke-opacity:1"
         d="m 85.223349,79.380013 c 0,0 4.920543,-0.05977 6.653615,-3.20489 1.733073,-3.145121 2.467673,-5.553504 2.467673,-5.553504 v 0.01101"
         id="path1662" /><path
         style="fill:none;fill-rule:evenodd;stroke:#333333;stroke-width:2;stroke-linecap:round;stroke-linejoin:round;stroke-dasharray:none;stroke-opacity:1"
         d="m 85.316035,67.151755 c 0,0 1.162291,1.777417 3.527777,2.846887 2.365483,1.069467 4.033208,3.023582 4.04767,3.897622"
         id="path1664" /><path
         style="fill:none;fill-rule:evenodd;stroke:#333333;stroke-width:2;stroke-linecap:round;stroke-linejoin:round;stroke-dasharray:none;stroke-opacity:1"
         d="m 83.462663,75.616461 c 0,0 4.043884,-2.836971 4.455255,-4.487548 0.411369,-1.650579 0.304969,-1.369465 0.304969,-1.369465"
         id="path1666"
         sodipodi:nodetypes="csc" /><path
         style="fill:none;fill-rule:evenodd;stroke:#333333;stroke-width:2;stroke-linecap:round;stroke-linejoin:round;stroke-dasharray:none;stroke-opacity:1"
         d="m 89.456598,75.932185 c 0,0 -2.246977,-1.672476 -2.297452,-3.462358"
         id="path1668" /></g><g
       id="g1744"
       transform="translate(0.66849459,-0.11926583)"
       style="stroke:#333333"><path
         style="fill:none;fill-rule:evenodd;stroke:#333333;stroke-width:1;stroke-linecap:round;stroke-linejoin:miter;stroke-dasharray:none;stroke-opacity:1"
         d="M 73.615935,63.070964 70.605369,58.224858"
         id="path1735" /><path
         style="fill:none;fill-rule:evenodd;stroke:#333333;stroke-width:1;stroke-linecap:round;stroke-linejoin:miter;stroke-dasharray:none;stroke-opacity:1"
         d="m 76.784054,62.692507 0.149288,-8.10732"
         id="path1737" /><path
         style="fill:none;fill-rule:evenodd;stroke:#333333;stroke-width:1;stroke-linecap:round;stroke-linejoin:miter;stroke-dasharray:none;stroke-opacity:1"
         d="m 79.776991,62.631909 2.975861,-4.062198"
         id="path1739" /></g></g></svg>
